<svg width="190" height="240" viewBox="0 0 190 240" fill="none" xmlns="http://www.w3.org/2000/svg">
<g style="mix-blend-mode:difference">
<path d="M145 235V95H185V235H145Z" fill="url(#paint0_linear_7_12)"/>
<path d="M185 95C185 144.706 144.706 185 95 185C45.2944 185 5 144.706 5 95C5 45.2944 45.2944 5 95 5C144.706 5 185 45.2944 185 95Z" fill="url(#paint1_linear_7_12)"/>
<path d="M145 95C145 122.614 122.614 145 95 145C67.3858 145 45 122.614 45 95C45 67.3858 67.3858 45 95 45C122.614 45 145 67.3858 145 95Z" fill="black"/>
<path d="M142.5 235V237.5H145H185H187.5V235V95C187.5 43.9137 146.086 2.5 95 2.5C43.9137 2.5 2.5 43.9137 2.5 95C2.5 146.086 43.9137 187.5 95 187.5C112.367 187.5 128.616 182.714 142.5 174.389V235Z" stroke="#2D0B0B" stroke-width="5"/>
</g>
<defs>
<linearGradient id="paint0_linear_7_12" x1="95" y1="5" x2="95" y2="235" gradientUnits="userSpaceOnUse">
<stop stop-color="#6E5191"/>
<stop offset="1" stop-color="#8974A3"/>
</linearGradient>
<linearGradient id="paint1_linear_7_12" x1="95" y1="5" x2="95" y2="235" gradientUnits="userSpaceOnUse">
<stop stop-color="#6E5191"/>
<stop offset="1" stop-color="#8974A3"/>
</linearGradient>
</defs>
</svg>
